<svg width="434" height="144" viewBox="0 0 434 144" fill="none" xmlns="http://www.w3.org/2000/svg">
<rect x="2" y="37.0769" width="430" height="96.4615" fill="#013397" stroke="black" stroke-width="2"/>
<path d="M252.183 83.7592C213.447 72.6108 202.742 113.069 202.231 134.231H432.077V37.3076C408.296 40.776 392.234 63.527 387.637 74.4689C384.062 81.1786 372.682 90.5721 355.766 74.4689C338.849 58.3657 318.071 73.9528 309.797 83.7592C306.732 88.4044 290.919 94.9076 252.183 83.7592Z" fill="#79DEB5" stroke="black" stroke-width="2" stroke-linecap="round"/>
<path d="M327.885 131.462C327.885 137.995 322.724 143.269 316.385 143.269C310.045 143.269 304.885 137.995 304.885 131.462C304.885 124.928 310.045 119.654 316.385 119.654C322.724 119.654 327.885 124.928 327.885 131.462Z" fill="#FFE47B" stroke="black"/>
<path d="M372.808 66.8462C372.808 69.3199 370.935 71.2692 368.692 71.2692C366.449 71.2692 364.577 69.3199 364.577 66.8462C364.577 64.3725 366.449 62.4231 368.692 62.4231C370.935 62.4231 372.808 64.3725 372.808 66.8462Z" fill="#22B5EF" stroke="black"/>
<path d="M42.5385 133.923L1.61539 87.3284V37.3076H133.308L47.1539 133.923H42.5385Z" fill="#508AFF" stroke="black" stroke-width="2" stroke-linecap="round"/>
<path d="M163.346 1L157.548 31.5126L133.022 11.6131L147.738 38.1457H116.077L147.738 48.3166L124.55 69.1005L154.427 57.603L147.738 89L163.346 62.4673L179.399 89L172.264 57.603L204.371 69.1005L179.399 48.3166L208.385 38.1457H176.278L191.439 11.6131L168.251 31.5126L163.346 1Z" fill="#FDFDFD" stroke="black" stroke-width="2.5"/>
<path d="M227.577 63.7693C227.577 67.9301 224.339 71.2693 220.385 71.2693C216.431 71.2693 213.192 67.9301 213.192 63.7693C213.192 59.6085 216.431 56.2693 220.385 56.2693C224.339 56.2693 227.577 59.6085 227.577 63.7693Z" fill="#B18BFC" stroke="black"/>
<path d="M135.885 91.4616C135.885 93.2665 134.553 94.6539 133 94.6539C131.447 94.6539 130.115 93.2665 130.115 91.4616C130.115 89.6567 131.447 88.2693 133 88.2693C134.553 88.2693 135.885 89.6567 135.885 91.4616Z" fill="#F13B3B" stroke="black"/>
</svg>
