<svg width="102" height="102" viewBox="0 0 102 102" fill="none" xmlns="http://www.w3.org/2000/svg">
<circle cx="50.8258" cy="50.8259" r="39.5" transform="rotate(108.959 50.8258 50.8259)" stroke="white"/>
<path d="M74.7616 37.7193C76.1431 36.8046 76.5216 34.9432 75.607 33.5617C74.6924 32.1802 72.831 31.8017 71.4494 32.7163L74.7616 37.7193ZM27.0538 63.1615C26.7237 64.7851 27.7722 66.369 29.3959 66.6991L55.8544 72.0793C57.478 72.4095 59.0619 71.3609 59.392 69.7373C59.7222 68.1137 58.6736 66.5298 57.05 66.1997L33.5313 61.4173L38.3137 37.8986C38.6438 36.275 37.5953 34.6911 35.9716 34.3609C34.348 34.0308 32.7642 35.0794 32.434 36.703L27.0538 63.1615ZM71.4494 32.7163L28.3376 61.2578L31.6497 66.2608L74.7616 37.7193L71.4494 32.7163Z" fill="white"/>
</svg>
