<svg width="364" height="522" viewBox="0 0 364 522" fill="none" xmlns="http://www.w3.org/2000/svg">
<rect y="0.344971" width="364" height="506" fill="black"/>
<g opacity="0.9">
<rect x="1" y="1.34497" width="362" height="507" fill="#7CC2C2" stroke="black" stroke-width="2"/>
<path d="M103 385.345C103 410.188 82.6392 430.345 57.5 430.345C32.3608 430.345 12 410.188 12 385.345C12 360.502 32.3608 340.345 57.5 340.345C82.6392 340.345 103 360.502 103 385.345Z" fill="#508AFF" stroke="black" stroke-width="2"/>
<path d="M93 385.697C81.6833 370.339 51.7057 348.837 22.3285 385.697C32.8368 400.594 61.6828 421.449 93 385.697Z" fill="#D9D9D9" stroke="black" stroke-width="3"/>
<ellipse cx="19.0536" cy="19.7465" rx="19.0536" ry="19.7465" transform="matrix(-1 0 0 1 76.3711 365.604)" fill="black"/>
<rect x="1" y="1.34497" width="362" height="243" fill="#86F7C9" stroke="black" stroke-width="2"/>
<path d="M250 138.752C250 177.62 217.927 209.159 178.326 209.159C138.724 209.159 106.651 177.62 106.651 138.752C106.651 99.8838 138.724 68.345 178.326 68.345C217.927 68.345 250 99.8838 250 138.752Z" fill="#FFC64B" stroke="black" stroke-width="2"/>
<mask id="path-8-inside-1_1_104" fill="white">
<path d="M233.252 138.752C233.252 124.52 227.465 110.871 217.164 100.808C206.863 90.7446 192.892 85.0911 178.324 85.0911C163.756 85.0911 149.785 90.7446 139.484 100.808C129.183 110.871 123.396 124.52 123.396 138.752L178.324 138.752H233.252Z"/>
</mask>
<path d="M233.252 138.752C233.252 124.52 227.465 110.871 217.164 100.808C206.863 90.7446 192.892 85.0911 178.324 85.0911C163.756 85.0911 149.785 90.7446 139.484 100.808C129.183 110.871 123.396 124.52 123.396 138.752L178.324 138.752H233.252Z" fill="#EFEAFC" stroke="black" stroke-width="4" mask="url(#path-8-inside-1_1_104)"/>
<path d="M156.352 119.316C155.338 108.161 142.972 105.091 136.916 104.95C126.438 115.428 124.381 130.442 124.663 136.639H231.562C232.576 129.879 228.323 120.302 226.069 116.358C223.112 121.569 216.689 130.217 214.661 123.118C212.633 116.02 200.577 115.654 194.802 116.358C189.028 117.062 175.789 125.231 175.789 125.231C169.732 127.907 157.367 130.47 156.352 119.316Z" fill="#508AFF" stroke="black"/>
<mask id="path-10-inside-2_1_104" fill="white">
<path d="M233.252 136.217C233.252 150.449 227.465 164.097 217.164 174.161C206.863 184.224 192.892 189.878 178.324 189.878C163.756 189.878 149.785 184.224 139.484 174.161C129.183 164.097 123.396 150.449 123.396 136.217L178.324 136.217H233.252Z"/>
</mask>
<path d="M233.252 136.217C233.252 150.449 227.465 164.097 217.164 174.161C206.863 184.224 192.892 189.878 178.324 189.878C163.756 189.878 149.785 184.224 139.484 174.161C129.183 164.097 123.396 150.449 123.396 136.217L178.324 136.217H233.252Z" fill="#008488" stroke="black" stroke-width="4" mask="url(#path-10-inside-2_1_104)"/>
<path opacity="0.6" d="M265.436 520.591L178.5 457.434H273.876L362.5 483.539V521.434L265.436 520.591Z" fill="black" stroke="black"/>
<path d="M227.273 216.434L223.254 238.278L206.249 224.032L216.452 243.027H194.5L216.452 250.308L200.374 265.187L221.089 256.956L216.452 279.434L227.273 260.439L238.403 279.434L233.457 256.956L255.717 265.187L238.403 250.308L258.5 243.027H236.239L246.751 224.032L230.674 238.278L227.273 216.434Z" fill="#FDFDFD" stroke="black"/>
<circle cx="249.5" cy="325.434" r="27" fill="#F397C0" stroke="black" stroke-width="2"/>
<path d="M219.5 294.934C219.5 304.074 212.309 311.434 203.5 311.434C194.691 311.434 187.5 304.074 187.5 294.934C187.5 285.793 194.691 278.434 203.5 278.434C212.309 278.434 219.5 285.793 219.5 294.934Z" fill="#01868E" stroke="black" stroke-width="2"/>
<path d="M190.729 348.231H176.469L189.937 329.655L203.405 311.079L229.748 348.231H190.729Z" fill="#7CAEF5"/>
<path d="M190.729 348.231H176.469L189.937 329.655L203.405 311.079M190.729 348.231L203.405 311.079M190.729 348.231H229.748L203.405 311.079" stroke="black"/>
<path d="M203.866 311.288L191.126 348.023H230.343L203.866 311.288Z" fill="#BBD5FA" stroke="black"/>
<rect x="177.5" y="349.434" width="96" height="107" fill="#FF5B44" stroke="black" stroke-width="2"/>
<rect x="201.5" y="376.434" width="48" height="53" fill="#F9C146" stroke="black" stroke-width="2"/>
<rect x="217.5" y="394.434" width="15" height="17" fill="#03BA84" stroke="black" stroke-width="2"/>
<path d="M279.165 171.345L176.469 180.604C197.347 193.872 186.29 214.69 178.994 223.535L281.69 211.75C293.475 199.123 287.022 176.873 279.165 171.345Z" fill="#56C3C6"/>
<path d="M176.469 180.604L176.424 180.106L176.201 181.026L176.469 180.604ZM279.165 171.345L279.453 170.936L279.303 170.831L279.12 170.847L279.165 171.345ZM281.69 211.75L281.747 212.247L281.93 212.226L282.056 212.091L281.69 211.75ZM178.994 223.535L178.608 223.217L177.82 224.173L179.051 224.032L178.994 223.535ZM176.514 181.102L279.21 171.843L279.12 170.847L176.424 180.106L176.514 181.102ZM278.877 171.754C280.749 173.071 282.579 175.419 284.084 178.438C285.585 181.449 286.745 185.092 287.298 188.956C288.408 196.696 287.08 205.243 281.325 211.409L282.056 212.091C288.086 205.631 289.424 196.739 288.288 188.815C287.72 184.848 286.53 181.102 284.979 177.992C283.433 174.889 281.509 172.383 279.453 170.936L278.877 171.754ZM281.633 211.253L178.937 223.038L179.051 224.032L281.747 212.247L281.633 211.253ZM179.38 223.853C183.058 219.394 187.709 211.893 188.792 203.794C189.336 199.736 188.984 195.516 187.153 191.46C185.322 187.402 182.026 183.543 176.737 180.182L176.201 181.026C181.351 184.299 184.502 188.018 186.242 191.871C187.982 195.726 188.325 199.752 187.801 203.662C186.752 211.501 182.226 218.831 178.608 223.217L179.38 223.853Z" fill="black"/>
<path d="M190.278 202.491C190.278 208.708 189.014 214.083 186.753 217.885C184.498 221.676 181.276 223.877 177.31 223.877C173.336 223.877 169.9 221.666 167.436 217.869C164.969 214.065 163.5 208.694 163.5 202.491C163.5 196.299 165.174 190.717 167.854 186.697C170.536 182.673 174.187 180.263 178.152 180.263C182.089 180.263 185.102 182.641 187.158 186.648C189.22 190.665 190.278 196.26 190.278 202.491Z" fill="#715AAA" stroke="black"/>
<rect x="221" y="279.934" width="58" height="19" fill="#F9C146" stroke="black"/>
</g>
<path d="M13.4912 469.345L13.4919 448.345L23.7519 448.346C26.3919 448.346 28.3718 448.846 29.6918 449.846C31.0318 450.846 31.7017 452.166 31.7017 453.806C31.7016 454.906 31.4316 455.866 30.8916 456.686C30.3516 457.486 29.6115 458.106 28.6715 458.546C27.7315 458.986 26.6515 459.206 25.4315 459.206L26.0015 457.976C27.3215 457.976 28.4915 458.196 29.5115 458.636C30.5315 459.056 31.3215 459.686 31.8815 460.526C32.4614 461.366 32.7514 462.396 32.7514 463.616C32.7513 465.416 32.0413 466.826 30.6212 467.846C29.2012 468.846 27.1112 469.346 24.3512 469.346L13.4912 469.345ZM18.3213 465.685L23.9913 465.686C25.2513 465.686 26.2013 465.486 26.8413 465.086C27.5013 464.666 27.8314 464.006 27.8314 463.106C27.8314 462.226 27.5014 461.576 26.8414 461.156C26.2015 460.716 25.2515 460.496 23.9915 460.496L17.9615 460.495L17.9616 456.955L23.1516 456.956C24.3316 456.956 25.2316 456.756 25.8516 456.356C26.4916 455.936 26.8116 455.306 26.8117 454.466C26.8117 453.646 26.4917 453.036 25.8517 452.636C25.2317 452.216 24.3317 452.006 23.1517 452.006L18.3217 452.005L18.3213 465.685ZM34.3306 469.346L34.3313 448.346L43.4213 448.346C45.3013 448.346 46.9213 448.656 48.2813 449.276C49.6413 449.876 50.6912 450.746 51.4312 451.887C52.1712 453.027 52.5411 454.387 52.5411 455.967C52.541 457.527 52.171 458.877 51.4309 460.017C50.6909 461.136 49.6409 461.996 48.2809 462.596C46.9208 463.196 45.3008 463.496 43.4208 463.496L37.0308 463.496L39.1909 461.366L39.1906 469.346L34.3306 469.346ZM47.6806 469.346L42.4309 461.726L47.6209 461.726L52.9306 469.347L47.6806 469.346ZM39.1909 461.906L37.0309 459.626L43.1509 459.626C44.6509 459.626 45.771 459.306 46.511 458.666C47.251 458.006 47.621 457.106 47.6211 455.966C47.6211 454.806 47.2511 453.906 46.5112 453.266C45.7712 452.626 44.6512 452.306 43.1512 452.306L37.0312 452.306L39.1913 449.996L39.1909 461.906ZM51.5312 469.347L60.8919 448.347L65.6919 448.347L75.0812 469.347L69.9812 469.347L62.3018 450.807L64.2218 450.807L56.5112 469.347L51.5312 469.347ZM56.2113 464.847L57.5014 461.157L68.3014 461.157L69.6213 464.847L56.2113 464.847ZM75.1599 469.347L75.1606 448.347L79.1806 448.347L91.5701 463.468L89.6201 463.468L89.6206 448.348L94.4206 448.348L94.4199 469.348L90.4299 469.348L78.0104 454.227L79.9604 454.227L79.9599 469.347L75.1599 469.347ZM97.2884 469.348L97.2891 448.348L106.829 448.348C109.109 448.348 111.119 448.788 112.859 449.668C114.599 450.529 115.959 451.739 116.939 453.299C117.919 454.859 118.409 456.709 118.409 458.849C118.409 460.969 117.919 462.819 116.939 464.399C115.959 465.959 114.599 467.179 112.858 468.058C111.118 468.918 109.108 469.348 106.828 469.348L97.2884 469.348ZM102.149 465.358L106.589 465.358C107.989 465.358 109.199 465.098 110.219 464.578C111.259 464.038 112.059 463.278 112.619 462.298C113.199 461.318 113.489 460.169 113.489 458.849C113.489 457.509 113.199 456.358 112.619 455.398C112.059 454.418 111.259 453.668 110.219 453.148C109.199 452.608 107.989 452.338 106.589 452.338L102.149 452.338L102.149 465.358ZM119.974 469.349L119.974 448.349L124.834 448.349L124.834 469.349L119.974 469.349ZM127.717 469.349L127.718 448.349L131.738 448.349L144.128 463.469L142.178 463.469L142.178 448.349L146.978 448.35L146.977 469.35L142.987 469.349L130.568 454.229L132.518 454.229L132.517 469.349L127.717 469.349ZM159.986 469.71C158.326 469.71 156.796 469.45 155.396 468.93C154.016 468.39 152.806 467.63 151.766 466.65C150.746 465.67 149.946 464.52 149.366 463.2C148.806 461.88 148.526 460.43 148.526 458.85C148.526 457.27 148.806 455.82 149.366 454.5C149.946 453.18 150.756 452.03 151.796 451.05C152.836 450.07 154.057 449.32 155.457 448.8C156.857 448.26 158.397 447.99 160.077 447.99C161.937 447.99 163.607 448.3 165.087 448.92C166.587 449.54 167.846 450.44 168.866 451.62L165.746 454.5C164.986 453.7 164.156 453.11 163.256 452.73C162.356 452.33 161.376 452.13 160.316 452.13C159.296 452.13 158.366 452.29 157.526 452.61C156.686 452.93 155.956 453.39 155.336 453.99C154.736 454.59 154.266 455.3 153.926 456.12C153.606 456.94 153.446 457.85 153.446 458.85C153.446 459.83 153.606 460.73 153.926 461.55C154.266 462.37 154.736 463.09 155.336 463.71C155.956 464.31 156.676 464.77 157.496 465.09C158.336 465.41 159.256 465.57 160.256 465.57C161.216 465.57 162.146 465.42 163.046 465.12C163.966 464.8 164.856 464.27 165.716 463.53L168.476 467.04C167.336 467.9 166.006 468.56 164.486 469.02C162.986 469.48 161.486 469.71 159.986 469.71ZM164.036 466.41L164.036 458.52L168.476 458.52L168.476 467.04L164.036 466.41ZM14.9303 496.585C14.1303 496.585 13.4403 496.315 12.8603 495.775C12.3004 495.215 12.0204 494.505 12.0204 493.645C12.0204 492.785 12.3005 492.095 12.8605 491.575C13.4405 491.035 14.1305 490.765 14.9305 490.765C15.7505 490.765 16.4405 491.035 17.0005 491.575C17.5605 492.095 17.8404 492.785 17.8404 493.645C17.8404 494.505 17.5604 495.215 17.0003 495.775C16.4403 496.315 15.7503 496.585 14.9303 496.585ZM19.2419 496.345L19.2426 475.345L28.3326 475.346C30.2126 475.346 31.8325 475.656 33.1925 476.276C34.5525 476.876 35.6025 477.746 36.3424 478.886C37.0824 480.026 37.4524 481.386 37.4523 482.966C37.4523 484.526 37.0822 485.876 36.3422 487.016C35.6021 488.136 34.5521 488.996 33.1921 489.596C31.8321 490.196 30.2121 490.496 28.3321 490.496L21.9421 490.496L24.1021 488.366L24.1019 496.346L19.2419 496.345ZM32.5919 496.346L27.3421 488.726L32.5321 488.726L37.8419 496.346L32.5919 496.346ZM24.1021 488.906L21.9422 486.626L28.0622 486.626C29.5622 486.626 30.6822 486.306 31.4222 485.666C32.1622 485.006 32.5323 484.106 32.5323 482.966C32.5323 481.806 32.1624 480.906 31.4224 480.266C30.6824 479.626 29.5624 479.306 28.0624 479.306L21.9424 479.306L24.1025 476.996L24.1021 488.906ZM46.5524 496.586C44.8324 496.586 43.3024 496.226 41.9625 495.506C40.6425 494.786 39.5925 493.806 38.8125 492.566C38.0526 491.306 37.6726 489.876 37.6727 488.276C37.6727 486.656 38.0528 485.226 38.8128 483.986C39.5929 482.726 40.6429 481.746 41.9629 481.046C43.3029 480.326 44.833 479.966 46.553 479.966C48.253 479.966 49.7729 480.326 51.1129 481.047C52.4529 481.747 53.5029 482.717 54.2628 483.957C55.0228 485.197 55.4027 486.637 55.4027 488.277C55.4026 489.877 55.0226 491.307 54.2625 492.567C53.5025 493.807 52.4525 494.787 51.1125 495.507C49.7724 496.226 48.2524 496.586 46.5524 496.586ZM46.5525 492.746C47.3325 492.746 48.0325 492.566 48.6526 492.206C49.2726 491.846 49.7626 491.336 50.1226 490.676C50.4826 489.996 50.6627 489.196 50.6627 488.276C50.6627 487.336 50.4827 486.536 50.1228 485.876C49.7628 485.216 49.2728 484.706 48.6528 484.346C48.0328 483.986 47.3328 483.806 46.5528 483.806C45.7728 483.806 45.0728 483.986 44.4528 484.346C43.8328 484.706 43.3328 485.216 42.9528 485.876C42.5927 486.536 42.4127 487.336 42.4127 488.276C42.4127 489.196 42.5926 489.996 42.9526 490.676C43.3326 491.336 43.8326 491.846 44.4526 492.206C45.0725 492.566 45.7725 492.746 46.5525 492.746ZM63.2406 496.587C61.9006 496.587 60.7006 496.327 59.6406 495.807C58.6007 495.287 57.7907 494.497 57.2107 493.437C56.6308 492.357 56.3408 490.987 56.3409 489.327L56.3411 480.207L61.0211 480.207L61.0209 488.637C61.0208 489.977 61.3008 490.967 61.8608 491.607C62.4408 492.227 63.2508 492.537 64.2908 492.537C65.0108 492.537 65.6508 492.387 66.2108 492.087C66.7708 491.767 67.2108 491.287 67.5308 490.647C67.8508 489.987 68.0109 489.167 68.0109 488.187L68.0111 480.207L72.6911 480.207L72.6906 496.347L68.2506 496.347L68.2508 491.907L69.0607 493.197C68.5207 494.317 67.7207 495.167 66.6606 495.747C65.6206 496.307 64.4806 496.587 63.2406 496.587ZM81.5263 496.587C79.6263 496.587 78.1463 496.107 77.0864 495.147C76.0264 494.167 75.4964 492.717 75.4965 490.797L75.497 476.637L80.177 476.637L80.1765 490.737C80.1765 491.417 80.3565 491.947 80.7165 492.327C81.0764 492.687 81.5664 492.867 82.1864 492.868C82.9264 492.868 83.5564 492.668 84.0765 492.268L85.3364 495.568C84.8563 495.908 84.2763 496.168 83.5963 496.348C82.9363 496.508 82.2463 496.588 81.5263 496.587ZM73.0067 484.167L73.0068 480.567L84.1968 480.568L84.1967 484.168L73.0067 484.167ZM93.3754 496.588C91.5354 496.588 89.9154 496.228 88.5154 495.508C87.1354 494.788 86.0655 493.808 85.3055 492.568C84.5456 491.308 84.1656 489.878 84.1657 488.278C84.1657 486.658 84.5358 485.228 85.2758 483.988C86.0358 482.728 87.0659 481.748 88.3659 481.048C89.6659 480.328 91.1359 479.968 92.7759 479.968C94.3559 479.968 95.7759 480.308 97.0359 480.988C98.3159 481.648 99.3258 482.608 100.066 483.868C100.806 485.108 101.176 486.598 101.176 488.338C101.176 488.518 101.166 488.728 101.146 488.968C101.126 489.188 101.106 489.398 101.086 489.598L87.9756 489.598L87.9757 486.868L98.6257 486.868L96.8257 487.678C96.8257 486.838 96.6557 486.108 96.3157 485.488C95.9758 484.868 95.5058 484.388 94.9058 484.048C94.3058 483.688 93.6058 483.508 92.8058 483.508C92.0058 483.508 91.2958 483.688 90.6758 484.048C90.0758 484.388 89.6058 484.878 89.2657 485.518C88.9257 486.138 88.7557 486.878 88.7557 487.738L88.7556 488.458C88.7556 489.338 88.9456 490.118 89.3256 490.798C89.7256 491.458 90.2755 491.968 90.9755 492.328C91.6955 492.668 92.5355 492.838 93.4955 492.838C94.3555 492.838 95.1055 492.708 95.7455 492.448C96.4055 492.188 97.0055 491.798 97.5456 491.278L100.035 493.978C99.2954 494.818 98.3654 495.468 97.2454 495.928C96.1254 496.368 94.8354 496.588 93.3754 496.588ZM107.621 496.588C106.241 496.588 104.911 496.428 103.631 496.108C102.371 495.768 101.371 495.348 100.631 494.848L102.191 491.488C102.931 491.948 103.801 492.328 104.801 492.628C105.821 492.908 106.821 493.048 107.801 493.048C108.881 493.048 109.641 492.918 110.081 492.658C110.541 492.398 110.771 492.038 110.771 491.578C110.771 491.198 110.591 490.918 110.231 490.738C109.891 490.538 109.431 490.388 108.851 490.288C108.271 490.188 107.631 490.088 106.931 489.988C106.251 489.888 105.561 489.758 104.861 489.598C104.161 489.418 103.521 489.158 102.941 488.818C102.361 488.478 101.891 488.018 101.531 487.438C101.191 486.858 101.022 486.108 101.022 485.188C101.022 484.168 101.312 483.268 101.892 482.488C102.492 481.708 103.352 481.098 104.472 480.658C105.592 480.198 106.932 479.968 108.492 479.968C109.592 479.968 110.712 480.088 111.852 480.328C112.992 480.568 113.942 480.919 114.702 481.379L113.142 484.708C112.362 484.248 111.572 483.938 110.772 483.778C109.992 483.598 109.232 483.508 108.492 483.508C107.452 483.508 106.692 483.648 106.212 483.928C105.732 484.208 105.492 484.568 105.492 485.008C105.492 485.408 105.662 485.708 106.002 485.908C106.362 486.108 106.832 486.268 107.411 486.388C107.991 486.508 108.621 486.618 109.301 486.718C110.001 486.798 110.701 486.928 111.401 487.108C112.101 487.288 112.731 487.548 113.291 487.888C113.871 488.209 114.341 488.659 114.701 489.239C115.061 489.799 115.241 490.539 115.241 491.459C115.241 492.459 114.941 493.349 114.341 494.129C113.741 494.889 112.871 495.488 111.731 495.928C110.611 496.368 109.241 496.588 107.621 496.588Z" fill="white"/>
</svg>
