<svg width="111" height="113" viewBox="0 0 111 113" fill="none" xmlns="http://www.w3.org/2000/svg">
<g clip-path="url(#clip0_61_35)">
<path d="M20.742 30.7869C23.9694 30.7869 26.6494 28.2487 26.6494 25.1704C26.6494 22.0921 23.9882 19.5359 20.742 19.5359C17.4958 19.5359 14.8346 22.0741 14.8346 25.1704C14.8346 28.2667 17.4958 30.7869 20.742 30.7869Z" fill="white"/>
<path d="M13.7022 41.1377C14.0797 41.6777 14.2684 42.2358 14.6459 42.7758C15.5895 44.2339 16.5521 45.8541 17.6845 47.4922C18.062 48.0323 18.2507 48.5723 18.6282 48.9504L19.0057 49.4904C19.1944 49.6704 19.1944 49.8504 19.3831 50.2105C19.9493 51.1105 20.5155 51.8486 20.9119 52.5687C21.2893 51.8486 22.0632 50.9305 22.6294 49.6704L23.0068 49.1304C23.3843 48.5903 23.573 48.0323 23.9505 47.4922C24.328 46.9522 24.7055 46.2141 25.0829 45.494C25.6491 44.594 26.2153 43.6759 26.8004 42.7758C29.4616 38.4194 31.5565 34.7831 33.0853 31.7048C35.9352 26.4484 36.1239 24.9902 36.1239 24.8102C36.1239 17.0155 29.0841 10.481 20.5155 10.481C11.947 10.481 4.94489 16.8175 4.94489 24.7922C4.94489 25.1523 5.32236 26.6104 7.98352 31.6868C9.51228 34.4051 11.3996 37.5013 13.6833 41.1197L13.7022 41.1377ZM20.742 17.1775C25.3094 17.1775 29.1219 20.8139 29.1219 25.1703C29.1219 29.5266 25.3094 33.163 20.742 33.163C16.1746 33.163 12.3622 29.5266 12.3622 25.1703C12.3622 20.8139 16.1746 17.1775 20.742 17.1775Z" fill="white"/>
<path d="M75.5507 83.0635C78.778 83.0635 81.4581 80.5253 81.4581 77.447C81.4581 74.3687 78.7969 71.8125 75.5507 71.8125C72.3044 71.8125 69.6432 74.3507 69.6432 77.447C69.6432 80.5433 72.1157 83.0635 75.5507 83.0635Z" fill="white"/>
<path d="M59.9423 77.069C59.9423 77.429 60.3197 78.8872 62.9809 83.9636C64.3209 86.5018 66.2083 89.7781 68.492 93.3964C68.8694 93.9365 69.0582 94.4765 69.4356 95.0346C70.3793 96.4927 71.3419 98.1129 72.4743 99.751C72.8517 100.291 73.0405 100.849 73.4179 101.209L73.7954 101.749C74.1729 102.469 74.5504 103.027 74.9278 103.567C75.1166 103.747 75.1166 103.927 75.3053 104.107C75.494 104.287 75.494 104.467 75.6828 104.647C76.0602 103.927 76.8152 103.009 77.4002 101.749L77.7777 101.209C78.1552 100.669 78.3439 100.129 78.7214 99.751C79.0989 99.211 79.4763 98.4729 79.8538 97.7528C80.42 96.8528 80.9862 95.9347 81.5713 95.0346C84.2325 90.6782 86.3274 87.0419 87.8562 83.9636C90.7061 78.7072 90.8948 77.249 90.8948 77.069C90.8948 69.2743 83.855 62.7397 75.2864 62.7397C66.7178 62.7397 59.8668 69.0943 59.8668 77.069H59.9423ZM83.7229 77.429C83.7229 81.7854 79.9104 85.4217 75.343 85.4217C70.7756 85.4217 66.9632 81.7854 66.9632 77.429C66.9632 73.0727 70.7756 69.4363 75.343 69.4363C79.9104 69.4363 83.7229 72.8926 83.7229 77.429Z" fill="white"/>
<path d="M99.3313 10.4631H82.5905C78.0231 10.4631 74.2106 14.0994 74.2106 18.4558C74.2106 21.534 75.9281 24.0723 78.5893 25.5304L29.4993 52.0287C27.9705 51.8487 26.2719 51.4887 24.177 51.4887C24.177 51.4887 24.177 51.6687 23.9882 51.6687C23.9882 51.6687 23.9882 51.8487 23.7995 51.8487C23.7995 52.0287 23.6108 52.0287 23.6108 52.0287C23.6108 52.0287 23.6108 52.2087 23.422 52.2087C23.422 52.2087 23.422 52.3888 23.2333 52.3888C23.2333 52.5688 23.0446 52.5688 23.0446 52.7488C23.0446 52.7488 23.0446 52.9288 22.8558 52.9288V53.1088L22.6671 53.2888V53.4689C22.6671 53.4689 22.6671 53.6489 22.4784 53.6489V53.8289C22.4784 53.8289 22.4784 54.0089 22.2896 54.0089V54.1889C22.2896 54.1889 22.2896 54.3689 22.1009 54.3689V54.549C22.1009 54.549 22.1009 54.729 21.9121 54.729C21.9121 54.729 21.9121 54.909 21.7234 54.909C21.7234 54.909 21.7234 55.089 21.5347 55.089C21.3459 55.269 21.3459 55.449 21.3459 55.449C21.1572 55.8091 20.7797 55.9891 20.4023 55.9891H20.2135C19.8361 55.9891 19.6473 55.8091 19.4586 55.449C19.4586 55.269 19.2699 55.089 18.8924 54.549L18.7037 54.3689L18.5149 54.1889V54.0089C18.5149 54.0089 18.5149 53.8289 18.3262 53.8289V53.6489C18.3262 53.6489 18.3262 53.4689 18.1374 53.4689C18.1374 53.4689 18.1374 53.2888 17.9487 53.2888C17.9487 53.2888 17.9487 53.1088 17.76 53.1088C17.76 53.1088 17.76 52.9288 17.5712 52.9288L17.3825 52.7488C17.1938 52.3888 17.005 52.0287 16.8163 51.6507C5.7753 52.0107 0.0755005 54.729 0.0755005 56.1871C0.0755005 57.8252 6.54911 60.7235 19.1 60.7235H21.3837C21.3837 60.9035 21.5724 60.9035 21.5724 61.0835L56.9602 106.646C55.4315 107.366 54.8653 107.924 54.8653 108.464C54.8653 110.102 61.3389 113 73.8898 113C86.4407 113 92.9143 110.102 92.9143 108.464C92.9143 107.006 87.7807 104.647 78.6459 104.107V104.287C77.3059 106.466 76.3622 107.924 76.3622 108.104C76.1735 108.464 75.796 108.644 75.4185 108.644C75.0411 108.644 74.8523 108.464 74.6636 108.284L74.4749 108.104C74.4749 108.104 73.5312 106.466 71.8137 104.107C66.4914 104.287 62.3014 105.007 59.4515 105.925C59.4515 105.745 59.2628 105.745 59.2628 105.745L24.5544 60.2015C33.6892 59.4814 38.6341 57.1232 38.6341 55.8451C38.6341 54.945 36.3504 53.4869 32.1605 52.5688L81.8167 26.2505H99.3313C103.899 26.2505 107.711 22.6141 107.711 18.2578C107.711 13.9014 103.899 10.4451 99.3313 10.4451V10.4631Z" fill="white"/>
</g>
<defs>
<clipPath id="clip0_61_35">
<rect width="111" height="113" fill="white"/>
</clipPath>
</defs>
</svg>
