<svg width="89" height="88" viewBox="0 0 89 88" fill="none" xmlns="http://www.w3.org/2000/svg">
<g clip-path="url(#clip0_61_43)">
<path d="M60.7132 0V79.9602L89.0157 88V8.03981L60.7132 0ZM70.5132 65.7576H66.0915V61.8159H70.5132V65.7576ZM70.5132 55.8251H66.0915V51.8834H70.5132V55.8251ZM83.951 65.7576H79.3725V61.8159H83.951V65.7576ZM83.951 55.8251H79.3725V51.8834H83.951V55.8251ZM84.4214 15.2975C84.2646 15.454 67.8163 24.6043 67.1891 34.224C67.1891 34.6932 66.7187 35.1625 66.2326 35.1625C65.7622 35.1625 65.2918 34.6932 65.2918 34.0519C65.919 23.3217 82.8378 13.8585 83.6374 13.5457C84.1078 13.2328 84.7507 13.3893 84.9075 13.8585C85.0643 14.4842 84.9075 14.9691 84.4371 15.2819L84.4214 15.2975Z" fill="white"/>
<path d="M30.1998 88L58.6591 79.9602V0L30.1998 8.03981V88ZM48.373 26.3406H52.3243V30.2823H48.373V26.3406ZM48.373 36.1166H52.3243V40.0583H48.373V36.1166ZM36.5188 26.3406H40.4702V30.2823H36.5188V26.3406ZM36.5188 36.1166H40.4702V40.0583H36.5188V36.1166ZM36.362 68.6043C48.8434 65.7732 51.3835 49.8343 51.3835 49.6779C51.5403 49.2087 52.0107 48.7238 52.4968 48.8958C52.9672 49.0523 53.4376 49.5215 53.2808 50.0064C53.2808 50.1628 52.6536 54.4174 50.2859 59.0004C47.1185 65.3039 42.54 69.2457 36.6913 70.5126H36.5345C36.0641 70.5126 35.7505 70.1998 35.578 69.7305C35.4212 69.2613 35.7348 68.7764 36.362 68.62V68.6043Z" fill="white"/>
<path d="M0 79.9602L28.3025 88V8.03981L0 0V79.9602ZM18.1732 14.5155H22.7518V18.4572H18.1732V14.5155ZM18.1732 24.2915H22.7518V28.2332H18.1732V24.2915ZM4.89218 14.5155H9.31395V18.4572H4.89218V14.5155ZM4.89218 24.2915H9.31395V28.2332H4.89218V24.2915ZM12.9517 44.6413C17.5303 41.1689 21.9678 39.2762 22.2814 39.2762C22.7518 39.1198 23.3946 39.2762 23.5514 39.7455C23.7082 40.2147 23.5514 40.856 23.081 41.0124C22.9242 41.0124 5.53506 48.4266 5.84866 59.7824C5.84866 60.2517 5.37826 60.7209 4.89218 60.7209C4.42178 60.7209 3.95137 60.2517 3.95137 59.7824C3.79457 54.5738 6.94627 49.2243 12.9674 44.6413H12.9517Z" fill="white"/>
</g>
<defs>
<clipPath id="clip0_61_43">
<rect width="89" height="88" fill="white"/>
</clipPath>
</defs>
</svg>
