<svg width="381" height="510" viewBox="0 0 381 510" fill="none" xmlns="http://www.w3.org/2000/svg">
<rect y="0.344971" width="364" height="506" fill="#508AFF"/>
<path d="M48.391 457.705C46.711 457.705 45.101 457.485 43.561 457.045C42.021 456.585 40.781 455.995 39.8411 455.275L41.4912 451.615C42.3912 452.255 43.4511 452.785 44.6711 453.205C45.9111 453.605 47.1611 453.805 48.4211 453.805C49.3811 453.805 50.1511 453.715 50.7311 453.535C51.3311 453.335 51.7711 453.065 52.0511 452.725C52.3312 452.385 52.4712 451.995 52.4712 451.555C52.4712 450.995 52.2512 450.555 51.8112 450.235C51.3712 449.895 50.7912 449.625 50.0713 449.425C49.3513 449.205 48.5513 449.005 47.6713 448.825C46.8113 448.625 45.9413 448.385 45.0613 448.105C44.2013 447.825 43.4113 447.465 42.6913 447.025C41.9713 446.585 41.3814 446.005 40.9214 445.285C40.4814 444.565 40.2614 443.645 40.2615 442.525C40.2615 441.325 40.5815 440.235 41.2216 439.255C41.8816 438.255 42.8616 437.465 44.1617 436.885C45.4817 436.285 47.1317 435.985 49.1117 435.985C50.4317 435.985 51.7317 436.145 53.0117 436.465C54.2917 436.765 55.4216 437.225 56.4016 437.846L54.9015 441.535C53.9215 440.975 52.9415 440.565 51.9615 440.305C50.9816 440.025 50.0216 439.885 49.0816 439.885C48.1416 439.885 47.3716 439.995 46.7715 440.215C46.1715 440.435 45.7415 440.725 45.4815 441.085C45.2215 441.425 45.0915 441.825 45.0915 442.285C45.0915 442.825 45.3115 443.265 45.7514 443.605C46.1914 443.925 46.7714 444.185 47.4914 444.385C48.2114 444.585 49.0014 444.785 49.8614 444.985C50.7414 445.185 51.6114 445.415 52.4714 445.675C53.3514 445.935 54.1514 446.285 54.8713 446.725C55.5913 447.166 56.1713 447.746 56.6113 448.466C57.0713 449.186 57.3012 450.096 57.3012 451.196C57.3012 452.376 56.9711 453.456 56.3111 454.436C55.6511 455.416 54.661 456.205 53.341 456.805C52.041 457.405 50.391 457.705 48.391 457.705ZM68.7218 457.706C67.0618 457.706 65.5219 457.436 64.1019 456.896C62.7019 456.356 61.4819 455.596 60.4419 454.616C59.422 453.636 58.622 452.486 58.0421 451.166C57.4821 449.846 57.2021 448.406 57.2022 446.846C57.2022 445.286 57.4823 443.846 58.0423 442.526C58.6224 441.206 59.4324 440.056 60.4724 439.076C61.5125 438.096 62.7325 437.336 64.1325 436.796C65.5325 436.256 67.0525 435.986 68.6925 435.986C70.3525 435.986 71.8725 436.256 73.2525 436.796C74.6525 437.336 75.8625 438.096 76.8824 439.076C77.9224 440.056 78.7324 441.206 79.3123 442.526C79.8923 443.826 80.1822 445.266 80.1822 446.846C80.1821 448.406 79.8921 449.856 79.3121 451.196C78.732 452.516 77.922 453.666 76.8819 454.646C75.8619 455.606 74.6519 456.356 73.2519 456.896C71.8719 457.436 70.3618 457.706 68.7218 457.706ZM68.692 453.566C69.632 453.566 70.492 453.406 71.272 453.086C72.072 452.766 72.772 452.306 73.372 451.706C73.9721 451.106 74.4321 450.396 74.7521 449.576C75.0921 448.756 75.2622 447.846 75.2622 446.846C75.2622 445.846 75.0923 444.936 74.7523 444.116C74.4323 443.296 73.9723 442.586 73.3724 441.986C72.7924 441.386 72.1024 440.926 71.3024 440.606C70.5024 440.286 69.6324 440.126 68.6924 440.126C67.7524 440.126 66.8824 440.286 66.0824 440.606C65.3024 440.926 64.6124 441.386 64.0124 441.986C63.4123 442.586 62.9423 443.296 62.6023 444.116C62.2823 444.936 62.1222 445.846 62.1222 446.846C62.1222 447.826 62.2821 448.736 62.6021 449.576C62.9421 450.396 63.4021 451.106 63.982 451.706C64.582 452.306 65.282 452.766 66.082 453.086C66.882 453.406 67.752 453.566 68.692 453.566ZM91.7843 457.707C90.1643 457.707 88.6544 457.447 87.2544 456.927C85.8744 456.386 84.6744 455.626 83.6544 454.646C82.6345 453.666 81.8345 452.516 81.2546 451.196C80.6946 449.876 80.4146 448.426 80.4147 446.846C80.4147 445.266 80.6948 443.816 81.2548 442.496C81.8349 441.176 82.6349 440.026 83.6549 439.046C84.695 438.066 85.905 437.316 87.285 436.797C88.665 436.257 90.175 435.987 91.815 435.987C93.635 435.987 95.275 436.307 96.735 436.947C98.215 437.567 99.455 438.487 100.455 439.707L97.3348 442.587C96.6149 441.767 95.8149 441.157 94.9349 440.757C94.0549 440.337 93.0949 440.127 92.0549 440.127C91.0749 440.127 90.1749 440.287 89.3549 440.607C88.5349 440.927 87.8249 441.387 87.2249 441.987C86.6248 442.586 86.1548 443.296 85.8148 444.116C85.4948 444.936 85.3347 445.846 85.3347 446.846C85.3347 447.846 85.4946 448.756 85.8146 449.576C86.1546 450.396 86.6246 451.106 87.2245 451.707C87.8245 452.307 88.5345 452.767 89.3545 453.087C90.1745 453.407 91.0745 453.567 92.0545 453.567C93.0945 453.567 94.0545 453.367 94.9345 452.967C95.8145 452.547 96.6145 451.917 97.3346 451.077L100.454 453.957C99.4544 455.177 98.2144 456.107 96.7344 456.747C95.2744 457.387 93.6243 457.707 91.7843 457.707ZM101.636 457.347L101.637 436.347L106.497 436.347L106.496 457.347L101.636 457.347ZM106.62 457.347L115.981 436.347L120.781 436.348L130.17 457.348L125.07 457.348L117.391 438.807L119.311 438.808L111.6 457.347L106.62 457.347ZM111.3 452.847L112.59 449.157L123.39 449.158L124.71 452.848L111.3 452.847ZM130.249 457.348L130.249 436.348L135.109 436.348L135.109 453.388L145.639 453.388L145.639 457.348L130.249 457.348ZM154.15 457.349L154.151 436.349L154.661 436.349L164.65 453.809L164.38 453.809L174.341 436.349L174.851 436.349L174.85 457.349L174.25 457.349L174.251 437.219L174.491 437.219L164.68 454.379L164.32 454.379L154.481 437.219L154.751 437.219L154.75 457.349L154.15 457.349ZM181.182 446.4L192.912 446.4L192.912 446.97L181.182 446.97L181.182 446.4ZM181.332 456.78L194.712 456.78L194.712 457.35L180.732 457.35L180.733 436.35L194.263 436.35L194.263 436.92L181.333 436.92L181.332 456.78ZM198.671 457.35L198.672 436.35L206.622 436.35C208.842 436.35 210.782 436.81 212.442 437.731C214.102 438.631 215.392 439.871 216.312 441.451C217.232 443.031 217.691 444.831 217.691 446.851C217.691 448.871 217.231 450.671 216.311 452.251C215.391 453.831 214.101 455.081 212.441 456.001C210.781 456.9 208.841 457.35 206.621 457.35L198.671 457.35ZM199.271 456.78L206.561 456.78C208.701 456.78 210.561 456.35 212.141 455.491C213.721 454.631 214.941 453.461 215.801 451.981C216.661 450.481 217.091 448.771 217.091 446.851C217.091 444.931 216.662 443.231 215.802 441.751C214.942 440.251 213.722 439.071 212.142 438.211C210.562 437.35 208.702 436.92 206.562 436.92L199.272 436.92L199.271 456.78ZM221.356 457.351L221.357 436.351L221.957 436.351L221.956 457.351L221.356 457.351ZM224.12 457.351L233.871 436.351L234.471 436.351L244.22 457.352L243.53 457.352L234.021 436.831L234.321 436.831L224.81 457.351L224.12 457.351ZM227.33 451.021L227.63 450.451L240.68 450.451L240.98 451.021L227.33 451.021ZM42.9301 484.585C42.1301 484.585 41.4401 484.315 40.8602 483.775C40.3002 483.215 40.0202 482.505 40.0202 481.645C40.0202 480.785 40.3003 480.095 40.8603 479.575C41.4403 479.035 42.1303 478.765 42.9303 478.765C43.7503 478.765 44.4403 479.035 45.0003 479.575C45.5603 480.095 45.8402 480.785 45.8402 481.645C45.8402 482.505 45.5602 483.215 45.0002 483.775C44.4401 484.315 43.7501 484.585 42.9301 484.585ZM47.2417 484.345L47.2424 463.345L56.3324 463.346C58.2124 463.346 59.8324 463.656 61.1923 464.276C62.5523 464.876 63.6023 465.746 64.3423 466.886C65.0822 468.026 65.4522 469.386 65.4521 470.966C65.4521 472.526 65.082 473.876 64.342 475.016C63.602 476.136 62.5519 476.996 61.1919 477.596C59.8319 478.196 58.2119 478.496 56.3319 478.496L49.9419 478.495L52.102 476.365L52.1017 484.345L47.2417 484.345ZM60.5917 484.346L55.3419 476.725L60.5319 476.726L65.8417 484.346L60.5917 484.346ZM52.1019 476.905L49.942 474.625L56.062 474.626C57.562 474.626 58.682 474.306 59.422 473.666C60.1621 473.006 60.5321 472.106 60.5321 470.966C60.5322 469.806 60.1622 468.906 59.4222 468.266C58.6822 467.626 57.5622 467.306 56.0622 467.306L49.9422 467.305L52.1023 464.995L52.1019 476.905ZM77.4022 484.706C75.7422 484.706 74.2022 484.436 72.7823 483.896C71.3823 483.356 70.1623 482.596 69.1223 481.616C68.1024 480.636 67.3024 479.486 66.7224 478.166C66.1625 476.846 65.8825 475.406 65.8826 473.846C65.8826 472.286 66.1627 470.846 66.7227 469.526C67.3028 468.206 68.1128 467.056 69.1528 466.076C70.1929 465.096 71.4129 464.336 72.8129 463.796C74.2129 463.256 75.7329 462.986 77.3729 462.986C79.0329 462.986 80.5529 463.256 81.9329 463.796C83.3329 464.336 84.5429 465.096 85.5628 466.076C86.6028 467.056 87.4128 468.207 87.9927 469.527C88.5727 470.827 88.8626 472.267 88.8626 473.847C88.8625 475.407 88.5725 476.857 87.9924 478.197C87.4124 479.517 86.6024 480.666 85.5623 481.646C84.5423 482.606 83.3323 483.356 81.9323 483.896C80.5522 484.436 79.0422 484.706 77.4022 484.706ZM77.3724 480.566C78.3124 480.566 79.1724 480.406 79.9524 480.086C80.7524 479.766 81.4524 479.306 82.0524 478.706C82.6524 478.106 83.1125 477.396 83.4325 476.576C83.7725 475.756 83.9425 474.846 83.9426 473.846C83.9426 472.846 83.7726 471.936 83.4327 471.116C83.1127 470.296 82.6527 469.586 82.0527 468.986C81.4728 468.386 80.7828 467.926 79.9828 467.606C79.1828 467.286 78.3128 467.126 77.3728 467.126C76.4328 467.126 75.5628 467.286 74.7628 467.606C73.9828 467.926 73.2928 468.386 72.6927 468.986C72.0927 469.586 71.6227 470.296 71.2827 471.116C70.9626 471.936 70.8026 472.846 70.8026 473.846C70.8025 474.826 70.9625 475.736 71.2825 476.576C71.6225 477.396 72.0824 478.106 72.6624 478.706C73.2624 479.306 73.9624 479.766 74.7624 480.086C75.5624 480.406 76.4324 480.566 77.3724 480.566ZM99.7447 484.707C96.7647 484.707 94.4348 483.877 92.7548 482.217C91.0749 480.557 90.2349 478.187 90.235 475.107L90.2354 463.347L95.0954 463.347L95.095 474.927C95.095 476.927 95.5049 478.367 96.3249 479.247C97.1449 480.127 98.2949 480.567 99.7749 480.567C101.255 480.567 102.405 480.127 103.225 479.247C104.045 478.367 104.455 476.927 104.455 474.927L104.455 463.347L109.255 463.347L109.255 475.107C109.255 478.187 108.415 480.557 106.735 482.217C105.055 483.877 102.725 484.707 99.7447 484.707ZM115.956 484.347L115.956 467.307L109.236 467.307L109.236 463.347L127.536 463.348L127.536 467.308L120.816 467.308L120.816 484.348L115.956 484.347ZM132.521 471.808L142.631 471.808L142.631 475.588L132.521 475.588L132.521 471.808ZM132.881 480.448L144.311 480.448L144.311 484.348L128.051 484.348L128.051 463.348L143.921 463.348L143.921 467.248L132.881 467.248L132.881 480.448ZM152.978 484.709C151.298 484.709 149.688 484.489 148.148 484.048C146.608 483.588 145.368 482.998 144.428 482.278L146.078 478.618C146.978 479.258 148.038 479.788 149.258 480.209C150.498 480.609 151.748 480.809 153.008 480.809C153.968 480.809 154.738 480.719 155.318 480.539C155.918 480.339 156.358 480.069 156.638 479.729C156.918 479.389 157.058 478.999 157.058 478.559C157.058 477.999 156.838 477.559 156.398 477.239C155.958 476.899 155.378 476.629 154.658 476.429C153.938 476.209 153.138 476.009 152.258 475.829C151.398 475.629 150.528 475.389 149.648 475.109C148.788 474.828 147.998 474.468 147.278 474.028C146.558 473.588 145.968 473.008 145.508 472.288C145.068 471.568 144.848 470.648 144.848 469.528C144.848 468.328 145.168 467.238 145.808 466.258C146.468 465.258 147.448 464.468 148.748 463.888C150.068 463.289 151.718 462.989 153.698 462.989C155.018 462.989 156.318 463.149 157.598 463.469C158.878 463.769 160.008 464.229 160.988 464.849L159.488 468.539C158.508 467.979 157.528 467.569 156.548 467.309C155.568 467.029 154.608 466.889 153.668 466.889C152.728 466.889 151.958 466.999 151.358 467.219C150.758 467.439 150.328 467.729 150.068 468.089C149.808 468.429 149.678 468.829 149.678 469.289C149.678 469.829 149.898 470.269 150.338 470.609C150.778 470.929 151.358 471.189 152.078 471.389C152.798 471.589 153.588 471.789 154.448 471.989C155.328 472.189 156.198 472.419 157.058 472.679C157.938 472.939 158.738 473.289 159.458 473.729C160.178 474.169 160.758 474.749 161.198 475.469C161.658 476.189 161.888 477.099 161.888 478.199C161.888 479.379 161.558 480.459 160.898 481.439C160.238 482.419 159.248 483.209 157.928 483.809C156.628 484.409 154.978 484.709 152.978 484.709Z" fill="white"/>
<path d="M244.033 180.529C254.251 180.529 262.486 172.098 262.486 161.757C262.486 151.415 254.251 142.984 244.033 142.984C233.816 142.984 225.58 151.415 225.58 161.757C225.58 172.098 233.816 180.529 244.033 180.529Z" fill="#D9D9D9" stroke="black" stroke-width="3"/>
<path d="M241.154 154.08C236.292 149.986 230.231 152.057 227.992 153.763C240.765 134.376 259.591 147.099 261.749 158.097C260.836 181.817 253.949 164.827 248.831 164.316C242.434 163.676 247.232 159.198 241.154 154.08Z" fill="#FFE47B" stroke="black" stroke-width="2"/>
<path d="M152.811 205.123V229.246C114.493 236.91 110.996 223.446 114.037 216.071C110.935 211.144 113.505 206.72 115.178 205.123V201.474C115.908 189.613 124.301 188.245 124.301 196C124.301 204.439 124.757 206.1 126.582 206.948C139.537 212.969 145.285 203.983 139.354 201.474C133.88 198.554 136.541 195.087 137.986 193.719C144.555 189.157 150.607 199.421 152.811 205.123Z" fill="white"/>
<path d="M115.178 205.123V201.474C115.908 189.613 124.301 188.245 124.301 196C124.301 204.439 124.757 206.1 126.582 206.948C139.537 212.969 145.285 203.983 139.354 201.474C133.88 198.554 136.541 195.087 137.986 193.719C144.555 189.157 150.607 199.421 152.811 205.123V229.246C114.493 236.91 110.996 223.446 114.037 216.071M115.178 205.123C113.505 206.72 110.935 211.144 114.037 216.071M115.178 205.123C116.09 208.947 119.435 211.643 122.02 212.368M114.037 216.071C115.583 218.526 118.74 220.807 118.74 220.807" stroke="black" stroke-width="3" stroke-linecap="round" stroke-linejoin="bevel"/>
<rect x="327.024" y="328.845" width="29.5632" height="6.29866" fill="#F48735" stroke="black"/>
<rect x="274.109" y="301.592" width="42.792" height="34.1248" fill="#F397C0" stroke="black"/>
<path d="M279.539 301.549V335.761" stroke="black" stroke-linecap="round" stroke-linejoin="bevel"/>
<path d="M285.926 301.549V335.761" stroke="black" stroke-linecap="round" stroke-linejoin="bevel"/>
<path d="M292.312 301.549V335.761" stroke="black" stroke-linecap="round" stroke-linejoin="bevel"/>
<path d="M298.698 301.549V335.761" stroke="black" stroke-linecap="round" stroke-linejoin="bevel"/>
<path d="M305.085 301.549V335.761" stroke="black" stroke-linecap="round" stroke-linejoin="bevel"/>
<path d="M311.471 301.549V335.761" stroke="black" stroke-linecap="round" stroke-linejoin="bevel"/>
<path d="M274.065 307.935H316.945" stroke="black" stroke-linecap="round" stroke-linejoin="bevel"/>
<path d="M273.609 320.708H316.945" stroke="black" stroke-linecap="round" stroke-linejoin="bevel"/>
<path d="M273.609 327.094H316.945" stroke="black" stroke-linecap="round" stroke-linejoin="bevel"/>
<path d="M273.609 333.48H316.945" stroke="black" stroke-linecap="round" stroke-linejoin="bevel"/>
<rect x="52.5" y="226.413" width="47.1783" height="48.0906" fill="#4A79ED" stroke="black" stroke-width="3"/>
<rect x="52.5" y="226.413" width="47.1783" height="12.5097" fill="#FFE47B" stroke="black" stroke-width="3"/>
<path d="M76.0888 240.422L99.8095 274.635H52.3682L76.0888 240.422Z" fill="#B0D3EF"/>
<path d="M52.3682 274.635L76.0888 240.422" stroke="black" stroke-width="2"/>
<path d="M99.8098 275.091L75.633 240.422" stroke="black" stroke-width="2"/>
<path d="M87.7217 275.319L75.6333 241.334" stroke="black" stroke-width="2"/>
<path d="M63.7726 275.319L75.8611 241.334" stroke="black" stroke-width="2"/>
<path d="M75.633 241.791V275.091" stroke="black" stroke-width="2"/>
<path d="M56.9297 268.249L95.2477 268.249" stroke="black" stroke-width="2"/>
<path d="M63.3165 259.125L88.8618 259.125" stroke="black" stroke-width="2"/>
<path d="M67.8782 252.282H83.844" stroke="black" stroke-width="2"/>
<circle cx="58.0706" cy="232.895" r="2.87741" fill="#FD9363" stroke="black" stroke-width="2"/>
<path d="M172.844 260.129C166.403 281.871 160.756 316.922 160.756 316.922H190.407L212.531 248.953C212.531 248.953 196.967 242.576 187.898 245.988C180.349 248.828 174.669 253.971 172.844 260.129Z" fill="#FFE47B" stroke="black" stroke-width="3"/>
<path d="M140.685 330.151C140.685 330.151 152.054 328.893 156.536 323.992C158.691 321.636 160.641 316.922 160.641 316.922H190.407L184.249 344.748H140.685C132.018 338.134 135.439 328.098 140.685 330.151Z" fill="white" stroke="black" stroke-width="3"/>
<path d="M133.632 323.203L111.508 344.186C111.508 344.186 78.3046 320.714 76.383 312.939C74.4614 305.163 81.4008 288.078 92.3487 298.798C102.446 308.685 102.909 309.247 102.92 309.275L112.876 302.903L133.632 323.203Z" fill="white" stroke="black" stroke-width="3"/>
<path d="M165.269 260.773L274.749 260.773C274.749 260.773 274.81 272.888 270.871 279.013C266.872 285.232 255.59 290.189 255.59 290.189L169.83 290.189L132.653 323.718L112.81 303.19L148.186 270.849C154.005 262.259 161.999 260.552 165.269 260.773Z" fill="#FFE47B" stroke="black" stroke-width="3"/>
<path d="M204.729 228.298V260.494H273.61V179.752H228.359L204.729 203.396V228.298Z" fill="#56C3C6" stroke="black" stroke-width="3"/>
<path d="M194.236 205.048C194.236 205.048 210.202 190.907 221.15 181.555C226.193 177.247 233.028 181.451 237.572 185.889C242.597 190.796 246.819 198.923 241.449 203.451C210.886 229.224 203.132 229.453 203.132 229.453C193.643 230.182 150.444 229.453 150.444 229.453V205.048H170.059H194.236Z" fill="#B18BFC" stroke="black" stroke-width="2"/>
<path d="M246.491 252.304V244.093C237.915 247.559 237.9 242.04 238.964 238.847C239.877 236.11 244.058 237.706 246.491 238.847C248.924 239.987 246.491 230.179 246.491 230.179H253.79C250.688 226.348 252.345 224.325 253.562 223.793C255.386 222.516 257.971 223.261 259.036 223.793C261.955 225.07 260.252 228.735 259.036 230.408H265.65V237.706C262.548 236.246 260.556 237.098 259.948 237.706C257.941 240.078 258.959 242.8 259.72 243.864C260.815 245.507 263.977 244.701 265.422 244.093L265.65 251.391H258.351C262.001 256.865 258.199 257.473 255.842 257.093C250.186 257.823 253.105 251.391 253.105 251.391C253.105 251.391 248.24 251.695 246.491 252.304Z" fill="#060606" stroke="black"/>
<path d="M122.87 194.37V186.159C114.294 189.626 114.279 184.107 115.343 180.914C116.255 178.177 120.437 179.773 122.87 180.914C125.303 182.054 122.87 172.246 122.87 172.246H130.169C127.067 168.415 128.724 166.392 129.94 165.86C131.765 164.583 134.35 165.328 135.414 165.86C138.334 167.137 136.631 170.802 135.414 172.474H142.029V179.773C138.927 178.313 136.935 179.165 136.327 179.773C134.32 182.145 135.338 184.867 136.099 185.931C137.193 187.574 140.356 186.768 141.801 186.159L142.029 193.458H134.73C138.38 198.932 134.578 199.54 132.221 199.16C126.565 199.89 129.484 193.458 129.484 193.458C129.484 193.458 124.618 193.762 122.87 194.37Z" fill="#56C3C6" stroke="black"/>
<path d="M103.415 182.261C103.415 189.58 102.171 196.183 100.18 200.937C99.184 203.316 98.0108 205.208 96.7335 206.498C95.4581 207.786 94.1084 208.447 92.7386 208.447C91.3687 208.447 90.0191 207.786 88.7436 206.498C87.4664 205.208 86.2931 203.316 85.2971 200.937C83.3059 196.183 82.0625 189.58 82.0625 182.261C82.0625 174.942 83.3059 168.339 85.2971 163.584C86.2931 161.206 87.4664 159.314 88.7436 158.024C90.0191 156.736 91.3687 156.075 92.7386 156.075C94.1084 156.075 95.4581 156.736 96.7335 158.024C98.0108 159.314 99.184 161.206 100.18 163.584C102.171 168.339 103.415 174.942 103.415 182.261Z" fill="black" stroke="black"/>
<mask id="mask0_1_196" style="mask-type:alpha" maskUnits="userSpaceOnUse" x="81" y="155" width="23" height="54">
<path d="M103.415 182.261C103.415 189.58 102.171 196.183 100.18 200.937C99.184 203.316 98.0108 205.208 96.7335 206.498C95.4581 207.786 94.1084 208.447 92.7386 208.447C91.3687 208.447 90.0191 207.786 88.7436 206.498C87.4664 205.208 86.2931 203.316 85.2971 200.937C83.3059 196.183 82.0625 189.58 82.0625 182.261C82.0625 174.942 83.3059 168.339 85.2971 163.584C86.2931 161.206 87.4664 159.314 88.7436 158.024C90.0191 156.736 91.3687 156.075 92.7386 156.075C94.1084 156.075 95.4581 156.736 96.7335 158.024C98.0108 159.314 99.184 161.206 100.18 163.584C102.171 168.339 103.415 174.942 103.415 182.261Z" fill="black" stroke="black"/>
</mask>
<g mask="url(#mask0_1_196)">
<circle cx="84.9834" cy="192.753" r="5.65825" fill="#EF8A3A" stroke="black"/>
</g>
<circle cx="100.95" cy="168.12" r="2.92125" fill="#FFFF84" stroke="black"/>
<path d="M304.811 116.345L301.488 133.902L287.429 122.452L295.864 137.718H277.715L295.864 143.571L282.572 155.529L299.699 148.914L295.864 166.979L304.811 151.713L314.014 166.979L309.924 148.914L328.329 155.529L314.014 143.571L330.63 137.718H312.225L320.916 122.452L307.623 133.902L304.811 116.345Z" fill="#FDFDFD" stroke="black" stroke-width="2.5"/>
<circle cx="152.497" cy="185.454" r="2.92125" fill="#F495BF" stroke="black"/>
<circle cx="193.552" cy="172.225" r="9.76374" fill="#F495BF" stroke="black"/>
<circle cx="299.839" cy="252.054" r="6.57058" fill="#F495BF" stroke="black"/>
<circle cx="230.957" cy="304.97" r="14.7816" fill="#D8D2EE" stroke="black"/>
<circle cx="261.521" cy="304.97" r="14.7816" fill="#F7B787" stroke="black"/>
<rect x="314.252" y="189.375" width="29.5632" height="30.0193" fill="#FFCBBD" stroke="black"/>
<rect x="217.545" y="320.751" width="55.5646" height="14.9658" fill="#F48735" stroke="black"/>
<path d="M273.609 314.321H316.945" stroke="black" stroke-linecap="round" stroke-linejoin="bevel"/>
<path d="M273.478 301.049L294.92 280.342L317.047 301.049H273.478Z" fill="white" stroke="black"/>
<circle cx="341.806" cy="311.539" r="15.6939" fill="white" stroke="black"/>
<path d="M348.977 312.2C351.752 307.322 347.591 305.805 345.163 305.656C340.149 307.463 344.187 294.858 352.71 305.038C361.233 315.218 345.508 318.297 348.977 312.2Z" fill="#0359FF" stroke="black" stroke-linecap="round" stroke-linejoin="bevel"/>
<path d="M289.043 214.595C289.043 214.595 278.768 187.453 273.609 179.524L273.609 239.966C291.84 222.193 289.043 214.595 289.043 214.595Z" fill="#B18BFC"/>
<path d="M273.609 179.524L274.866 178.706L272.109 179.524L273.609 179.524ZM289.043 214.595L290.451 214.077L290.446 214.064L289.043 214.595ZM273.609 239.966L272.109 239.966L272.109 243.523L274.656 241.04L273.609 239.966ZM272.352 180.342C274.84 184.166 278.645 192.791 281.874 200.606C283.476 204.483 284.918 208.114 285.96 210.777C286.481 212.108 286.901 213.196 287.191 213.951C287.336 214.329 287.449 214.623 287.525 214.822C287.563 214.922 287.592 214.998 287.611 215.049C287.621 215.075 287.628 215.094 287.633 215.107C287.635 215.113 287.637 215.118 287.638 215.121C287.639 215.123 287.639 215.124 287.64 215.125C287.64 215.125 287.64 215.126 287.64 215.126C287.64 215.126 287.64 215.126 289.043 214.595C290.446 214.064 290.446 214.064 290.446 214.063C290.446 214.063 290.445 214.063 290.445 214.062C290.445 214.062 290.444 214.06 290.444 214.059C290.443 214.055 290.441 214.05 290.438 214.043C290.433 214.03 290.425 214.01 290.416 213.984C290.396 213.932 290.366 213.855 290.328 213.754C290.251 213.552 290.138 213.255 289.992 212.875C289.7 212.115 289.277 211.021 288.754 209.684C287.708 207.009 286.258 203.359 284.647 199.46C281.449 191.721 277.537 182.811 274.866 178.706L272.352 180.342ZM289.043 214.595C287.635 215.113 287.635 215.111 287.634 215.109C287.634 215.109 287.633 215.107 287.633 215.106C287.632 215.103 287.631 215.101 287.63 215.099C287.629 215.094 287.627 215.09 287.626 215.087C287.624 215.08 287.622 215.075 287.621 215.071C287.619 215.064 287.619 215.064 287.621 215.072C287.625 215.087 287.636 215.131 287.648 215.205C287.673 215.354 287.705 215.625 287.696 216.026C287.677 216.825 287.497 218.161 286.762 220.079C285.287 223.928 281.586 230.095 272.562 238.892L274.656 241.04C283.864 232.064 287.88 225.545 289.563 221.153C290.408 218.95 290.668 217.275 290.695 216.094C290.708 215.505 290.663 215.044 290.607 214.707C290.578 214.539 290.547 214.402 290.519 214.297C290.505 214.245 290.492 214.2 290.48 214.163C290.474 214.145 290.469 214.129 290.464 214.114C290.461 214.107 290.459 214.1 290.457 214.094C290.456 214.091 290.455 214.088 290.454 214.085C290.453 214.084 290.452 214.081 290.452 214.081C290.451 214.079 290.451 214.077 289.043 214.595ZM275.109 239.966L275.109 179.524L272.109 179.524L272.109 239.966L275.109 239.966Z" fill="black"/>
<rect x="3" y="335.345" width="378" height="18" rx="9" fill="black"/>
<path d="M363 2.49219H2.26541L33.9197 37.2012H363V2.49219Z" fill="#A7EAD8" stroke="black" stroke-width="2"/>
<path d="M2 508.345L2 2.85333L35 37.6634L35 508.345H2Z" fill="#68D6BB" stroke="black" stroke-width="2"/>
</svg>
