<svg width="364" height="523" viewBox="0 0 364 523" fill="none" xmlns="http://www.w3.org/2000/svg">
<rect y="0.345215" width="364" height="506" fill="black"/>
<rect x="1" y="1.34521" width="362" height="514.221" fill="#508AFF" stroke="black" stroke-width="2"/>
<path d="M1 2.49243H361.735L330.08 37.2015H1V2.49243Z" fill="#A7EAD8" stroke="black" stroke-width="2"/>
<path d="M363 516.345L363 2.8822L330 38.2394V516.345H363Z" fill="#68D6BB" stroke="black" stroke-width="2"/>
<path d="M1 315.666H330.124L328.91 516.713H1V315.666Z" fill="#3F6FD0" stroke="black" stroke-width="2"/>
<path d="M1.21873 359.405L20.0883 315.813" stroke="black" stroke-width="2"/>
<path d="M1.21873 444.295L50.5231 315.813" stroke="black" stroke-width="2"/>
<path d="M3.06642 515.419L80.3496 315.24" stroke="black" stroke-width="2"/>
<path d="M57.2198 516.566L109.561 315.241" stroke="black" stroke-width="2"/>
<path d="M113.828 516.566L136.349 315.24" stroke="black" stroke-width="2"/>
<path d="M179.567 515.992L168.61 316.387" stroke="black" stroke-width="2"/>
<path d="M253.219 515.993L203.914 316.387" stroke="black" stroke-width="2"/>
<path d="M327.479 515.993L242.262 316.387" stroke="black" stroke-width="2"/>
<path d="M329.306 408.733L278.784 316.387" stroke="black" stroke-width="2"/>
<path d="M329.914 352.523L309.219 315.74" stroke="black" stroke-width="2"/>
<path d="M1.21873 331.3H330.523" stroke="black" stroke-width="2"/>
<path d="M1.82726 357.111H329.306" stroke="black" stroke-width="2"/>
<path d="M1.21873 385.217H330.523" stroke="black" stroke-width="2"/>
<path d="M0.610214 414.469H329.306" stroke="black" stroke-width="2"/>
<path d="M0.610214 447.737H329.306" stroke="black" stroke-width="2"/>
<path d="M0.610214 484.446H329.306" stroke="black" stroke-width="2"/>
<path d="M167.5 38.2016C167.5 44.2572 162.549 49.1731 156.434 49.1731C150.319 49.1731 145.369 44.2572 145.369 38.2016C145.369 32.1459 150.319 27.23 156.434 27.23C162.549 27.23 167.5 32.1459 167.5 38.2016Z" fill="#FFBD39" stroke="black"/>
<path d="M346.457 96.7064C346.457 105.289 339.334 112.267 330.523 112.267C321.711 112.267 314.588 105.289 314.588 96.7064C314.588 88.1236 321.711 81.1462 330.523 81.1462C339.334 81.1462 346.457 88.1236 346.457 96.7064Z" fill="#0359FF" stroke="black"/>
<path d="M268.544 96.7066C268.544 101.501 264.678 105.384 259.914 105.384C255.15 105.384 251.283 101.501 251.283 96.7066C251.283 91.9118 255.15 88.0293 259.914 88.0293C264.678 88.0293 268.544 91.9118 268.544 96.7066Z" fill="#F28D37" stroke="black"/>
<path d="M183.326 217.732C183.326 221.583 180.27 224.688 176.521 224.688C172.773 224.688 169.717 221.583 169.717 217.732C169.717 213.88 172.773 210.775 176.521 210.775C180.27 210.775 183.326 213.88 183.326 217.732Z" fill="#F75084" stroke="black"/>
<path d="M205.238 214.29C205.238 220.03 200.559 224.688 194.782 224.688C189.004 224.688 184.325 220.03 184.325 214.29C184.325 208.55 189.004 203.892 194.782 203.892C200.559 203.892 205.238 208.55 205.238 214.29Z" fill="#FFBD39" stroke="black"/>
<path d="M205.238 192.494C205.238 198.234 200.559 202.892 194.782 202.892C189.004 202.892 184.325 198.234 184.325 192.494C184.325 186.754 189.004 182.096 194.782 182.096C200.559 182.096 205.238 186.754 205.238 192.494Z" fill="#F28D37" stroke="black"/>
<path d="M88.8997 219.452C75.0251 227.813 75.2564 260.822 77.1063 276.281C51.577 294.57 54.4445 307.416 59.0694 311.553H77.1063V353.358C80.4362 376.35 114.105 378.615 130.524 376.873V410.186H109.018V450.031H244.989V410.186H220.708C204.614 379.878 219.552 340.512 229.033 324.617C266.217 261.388 252.389 228.162 240.827 219.452H88.8997Z" fill="black" stroke="black" stroke-width="2"/>
<ellipse cx="158.869" cy="310.078" rx="10.3478" ry="10.3244" fill="#86F6CE"/>
<path d="M298.978 186.185C298.978 191.61 294.57 196.009 289.13 196.009C283.69 196.009 279.282 191.61 279.282 186.185C279.282 180.76 283.69 176.36 289.13 176.36C294.57 176.36 298.978 180.76 298.978 186.185Z" fill="#A2E8CC" stroke="black"/>
<path d="M266.109 158.653C266.109 167.236 258.986 174.213 250.174 174.213C241.363 174.213 234.24 167.236 234.24 158.653C234.24 150.07 241.363 143.093 250.174 143.093C258.986 143.093 266.109 150.07 266.109 158.653Z" fill="#55C3C4" stroke="black"/>
<ellipse cx="115.044" cy="265.339" rx="6.69565" ry="6.88294" fill="#FFBD39"/>
<ellipse cx="214.87" cy="258.456" rx="21.3043" ry="20.6488" fill="#B18BFC"/>
<path d="M160.872 191.625C143.864 194.59 139.25 215.116 142.854 217.889H103.213C103.213 217.889 93.3285 219.552 107.331 212.198C121.334 204.844 113.554 196.846 120.736 188.66C126.617 181.955 137.686 186.711 138.735 173.678C139.784 160.645 158.984 153.104 166.02 155.731C178.376 162.735 160.872 163.709 160.872 173.678C160.872 180.687 177.88 188.66 160.872 191.625Z" fill="#1CCA9F" stroke="black" stroke-width="2"/>
<path d="M120.499 217.807C124.789 214.451 132.957 206.776 131.31 202.924C129.662 199.072 138.456 196.523 143.151 191.543C145.375 189.183 143.104 185.056 144.695 182.351C146.239 179.724 151.902 175.347 151.902 175.347" stroke="black" stroke-width="2" stroke-linecap="round"/>
<path d="M69.7399 183.424C89.8492 187.309 95.3052 214.206 91.0443 217.839H137.914C137.914 217.839 149.601 220.018 133.044 210.382C116.488 200.746 125.687 190.266 117.196 179.539C110.242 170.754 97.1539 176.985 95.914 159.907C94.674 142.83 71.9719 132.949 63.653 136.391C49.0443 145.568 69.74 146.845 69.7399 159.907C69.7399 169.091 49.6307 179.539 69.7399 183.424Z" fill="#00B286" stroke="black" stroke-width="2"/>
<path d="M117.476 217.732C112.404 213.334 102.746 203.278 104.694 198.23C106.642 193.183 96.2448 189.843 90.6936 183.317C88.0632 180.225 90.7483 174.817 88.8675 171.272C87.0414 167.831 80.3458 162.095 80.3458 162.095" stroke="black" stroke-width="2" stroke-linecap="round"/>
<path d="M129.76 218.305C129.76 223.043 125.409 226.982 119.912 226.982C114.415 226.982 110.064 223.043 110.064 218.305C110.064 213.568 114.415 209.628 119.912 209.628C125.409 209.628 129.76 213.568 129.76 218.305Z" fill="#FEA468" stroke="black"/>
<path d="M185.681 142.457H176.523L180.847 137.903L185.172 133.348L193.822 124.238L210.739 142.457H185.681Z" fill="#514269"/>
<path d="M185.681 142.457H176.523L180.847 137.903L185.172 133.348L193.822 124.238M185.681 142.457L193.822 124.238M185.681 142.457H210.739L193.822 124.238" stroke="black"/>
<path d="M185.681 142.824H176.523L185.172 151.933L193.822 161.043L210.739 142.824H185.681Z" fill="#8E78C1"/>
<path d="M185.681 142.824H176.523L185.172 151.933L193.822 161.043M185.681 142.824L193.822 161.043M185.681 142.824H210.739L193.822 161.043" stroke="black"/>
<path d="M194.117 124.341L185.935 142.355H211.12L194.117 124.341Z" fill="#8970B1" stroke="black"/>
<rect x="187.978" y="161.447" width="20.913" height="19.6488" fill="#EE98B3" stroke="black" stroke-linejoin="bevel"/>
<path d="M181.891 180.034V163.046L186.978 161.608V180.993L181.891 180.034Z" fill="#7D4F5E" stroke="black"/>
<path d="M240.435 218.995H208.174C210.122 206.606 216.623 201.928 227.043 196.626C244.696 187.643 275.333 200.449 276.348 206.95C254.922 195.937 243.478 210.391 240.435 218.995Z" fill="#1CCA9F" stroke="black" stroke-width="2" stroke-linecap="round"/>
<path d="M222.174 218.305C224.835 216.854 229.488 214.864 229.488 210.724C229.488 207.408 233.92 207.957 236.832 205.805" stroke="black" stroke-width="2" stroke-linecap="round"/>
<path d="M256.87 243.16C255.409 223.429 244.088 219.452 241.044 216.959C243.026 209.724 249.711 204.983 256.87 203.392C263.786 201.855 271.143 203.317 275.131 204.914C284.87 211.422 279.128 225.384 281.218 238.572C282.812 248.629 290.348 263.618 284.87 264.383C267.34 267.595 258.899 251.573 256.87 243.16Z" fill="#028364" stroke="black" stroke-width="2" stroke-linecap="round"/>
<path d="M32.5311 468.345L25.6618 447.345L30.7018 447.345L36.6712 465.946L34.1512 465.946L40.3918 447.346L44.8918 447.346L50.8912 465.946L48.4612 465.946L54.5818 447.346L59.2318 447.346L52.3611 468.346L47.1411 468.346L41.8316 452.026L43.2116 452.026L37.7511 468.346L32.5311 468.345ZM64.3147 455.806L74.4247 455.807L74.4245 459.587L64.3145 459.586L64.3147 455.806ZM64.6744 464.446L76.1044 464.447L76.1042 468.347L59.8442 468.346L59.8449 447.346L75.7149 447.347L75.7148 451.247L64.6748 451.246L64.6744 464.446ZM77.8712 468.347L77.8719 447.347L88.1319 447.347C90.7719 447.347 92.7519 447.847 94.0718 448.847C95.4118 449.847 96.0818 451.167 96.0817 452.807C96.0817 453.907 95.8116 454.867 95.2716 455.687C94.7316 456.487 93.9916 457.107 93.0515 457.547C92.1115 457.987 91.0315 458.207 89.8115 458.207L90.3816 456.977C91.7016 456.977 92.8716 457.197 93.8915 457.637C94.9115 458.057 95.7015 458.687 96.2615 459.528C96.8415 460.368 97.1314 461.398 97.1314 462.618C97.1313 464.418 96.4213 465.828 95.0012 466.847C93.5812 467.847 91.4912 468.347 88.7312 468.347L77.8712 468.347ZM82.7013 464.687L88.3713 464.687C89.6313 464.687 90.5813 464.487 91.2213 464.087C91.8814 463.667 92.2114 463.007 92.2114 462.107C92.2114 461.227 91.8814 460.577 91.2215 460.157C90.5815 459.717 89.6315 459.497 88.3715 459.497L82.3415 459.497L82.3416 455.957L87.5316 455.957C88.7116 455.957 89.6116 455.757 90.2316 455.357C90.8716 454.937 91.1917 454.307 91.1917 453.467C91.1917 452.647 90.8717 452.037 90.2317 451.637C89.6117 451.217 88.7118 451.007 87.5318 451.007L82.7018 451.007L82.7013 464.687ZM28.9302 495.585C28.1302 495.585 27.4403 495.315 26.8603 494.775C26.3003 494.215 26.0203 493.505 26.0203 492.645C26.0204 491.785 26.3004 491.095 26.8604 490.575C27.4404 490.035 28.1304 489.765 28.9304 489.765C29.7504 489.765 30.4404 490.035 31.0004 490.575C31.5604 491.095 31.8404 491.785 31.8403 492.645C31.8403 493.505 31.5603 494.215 31.0003 494.775C30.4403 495.315 29.7502 495.585 28.9302 495.585ZM33.2418 495.345L33.2425 474.345L42.3325 474.346C44.2125 474.346 45.8325 474.656 47.1925 475.276C48.5524 475.876 49.6024 476.746 50.3424 477.886C51.0823 479.026 51.4523 480.386 51.4522 481.966C51.4522 483.526 51.0822 484.876 50.3421 486.016C49.6021 487.136 48.5521 487.996 47.192 488.596C45.832 489.196 44.212 489.496 42.332 489.496L35.942 489.496L38.1021 487.366L38.1018 495.346L33.2418 495.345ZM46.5918 495.346L41.3421 487.726L46.5321 487.726L51.8418 495.346L46.5918 495.346ZM38.1021 487.906L35.9421 485.626L42.0621 485.626C43.5621 485.626 44.6821 485.306 45.4222 484.666C46.1622 484.006 46.5322 483.106 46.5322 481.966C46.5323 480.806 46.1623 479.906 45.4223 479.266C44.6824 478.626 43.5624 478.306 42.0624 478.306L35.9424 478.306L38.1024 475.996L38.1021 487.906ZM63.4024 495.706C61.7424 495.706 60.2024 495.436 58.7824 494.896C57.3824 494.356 56.1624 493.596 55.1225 492.616C54.1025 491.636 53.3025 490.486 52.7226 489.166C52.1626 487.846 51.8827 486.406 51.8827 484.846C51.8828 483.286 52.1628 481.846 52.7228 480.526C53.3029 479.206 54.1129 478.056 55.153 477.076C56.193 476.096 57.413 475.336 58.813 474.796C60.213 474.256 61.733 473.986 63.373 473.986C65.033 473.986 66.553 474.257 67.933 474.797C69.333 475.337 70.543 476.097 71.563 477.077C72.6029 478.057 73.4129 479.207 73.9928 480.527C74.5728 481.827 74.8628 483.267 74.8627 484.847C74.8627 486.407 74.5726 487.857 73.9926 489.197C73.4125 490.517 72.6025 491.667 71.5625 492.647C70.5424 493.607 69.3324 494.357 67.9324 494.897C66.5524 495.437 65.0424 495.707 63.4024 495.706ZM63.3725 491.566C64.3125 491.566 65.1725 491.407 65.9525 491.087C66.7525 490.767 67.4525 490.307 68.0525 489.707C68.6526 489.107 69.1126 488.397 69.4326 487.577C69.7726 486.757 69.9427 485.847 69.9427 484.847C69.9427 483.847 69.7728 482.937 69.4328 482.117C69.1128 481.297 68.6528 480.587 68.0529 479.987C67.4729 479.387 66.7829 478.927 65.9829 478.607C65.1829 478.287 64.3129 478.126 63.3729 478.126C62.4329 478.126 61.5629 478.286 60.7629 478.606C59.9829 478.926 59.2929 479.386 58.6929 479.986C58.0928 480.586 57.6228 481.296 57.2828 482.116C56.9628 482.936 56.8027 483.846 56.8027 484.846C56.8027 485.826 56.9626 486.736 57.2826 487.576C57.6226 488.396 58.0826 489.106 58.6625 489.706C59.2625 490.306 59.9625 490.766 60.7625 491.086C61.5625 491.406 62.4325 491.566 63.3725 491.566ZM85.7449 495.707C82.7649 495.707 80.4349 494.877 78.7549 493.217C77.075 491.557 76.2351 489.187 76.2352 486.107L76.2355 474.347L81.0955 474.347L81.0952 485.927C81.0951 487.927 81.5051 489.367 82.325 490.247C83.145 491.127 84.295 491.567 85.775 491.567C87.255 491.567 88.405 491.127 89.225 490.247C90.0451 489.367 90.4551 487.927 90.4552 485.927L90.4555 474.347L95.2555 474.347L95.2552 486.107C95.2551 489.187 94.415 491.557 92.7349 493.217C91.0549 494.877 88.7249 495.707 85.7449 495.707ZM101.956 495.348L101.956 478.308L95.2364 478.307L95.2366 474.347L113.537 474.348L113.536 478.308L106.816 478.308L106.816 495.348L101.956 495.348ZM118.521 482.808L128.631 482.809L128.631 486.589L118.521 486.588L118.521 482.808ZM118.881 491.448L130.311 491.449L130.311 495.349L114.051 495.348L114.051 474.348L129.921 474.349L129.921 478.249L118.881 478.248L118.881 491.448ZM138.978 495.709C137.298 495.709 135.688 495.489 134.148 495.049C132.608 494.589 131.368 493.999 130.428 493.279L132.078 489.619C132.978 490.259 134.038 490.789 135.258 491.209C136.498 491.609 137.748 491.809 139.008 491.809C139.968 491.809 140.738 491.719 141.318 491.539C141.918 491.339 142.358 491.069 142.638 490.729C142.918 490.389 143.058 489.999 143.058 489.559C143.058 488.999 142.838 488.559 142.398 488.239C141.958 487.899 141.378 487.629 140.658 487.429C139.938 487.209 139.138 487.009 138.258 486.829C137.398 486.629 136.528 486.389 135.648 486.109C134.788 485.829 133.998 485.469 133.278 485.029C132.558 484.589 131.968 484.009 131.508 483.289C131.068 482.569 130.848 481.649 130.848 480.529C130.848 479.329 131.168 478.239 131.808 477.259C132.468 476.259 133.448 475.469 134.748 474.889C136.068 474.289 137.718 473.989 139.698 473.989C141.018 473.989 142.318 474.149 143.598 474.469C144.878 474.769 146.008 475.229 146.988 475.849L145.488 479.539C144.508 478.979 143.528 478.569 142.548 478.309C141.568 478.029 140.608 477.889 139.668 477.889C138.728 477.889 137.958 477.999 137.358 478.219C136.758 478.439 136.328 478.729 136.068 479.089C135.808 479.429 135.678 479.829 135.678 480.289C135.678 480.829 135.898 481.269 136.338 481.609C136.778 481.929 137.358 482.189 138.078 482.389C138.798 482.589 139.588 482.789 140.448 482.989C141.328 483.189 142.198 483.419 143.058 483.679C143.938 483.939 144.738 484.289 145.458 484.729C146.178 485.169 146.758 485.749 147.198 486.469C147.658 487.189 147.888 488.099 147.888 489.199C147.888 490.379 147.558 491.459 146.898 492.439C146.238 493.419 145.248 494.209 143.928 494.809C142.628 495.409 140.978 495.709 138.978 495.709Z" fill="white"/>
</svg>
